<?xml version="1.0" encoding="UTF-8" standalone="no"?>
<!-- Created with Inkscape (http://www.inkscape.org/) -->

<svg
   width="210mm"
   height="297mm"
   viewBox="0 0 210 297"
   version="1.1"
   id="svg5"
   inkscape:version="1.1.2 (b8e25be833, 2022-02-05)"
   sodipodi:docname="img01.svg"
   xmlns:inkscape="http://www.inkscape.org/namespaces/inkscape"
   xmlns:sodipodi="http://sodipodi.sourceforge.net/DTD/sodipodi-0.dtd"
   xmlns="http://www.w3.org/2000/svg"
   xmlns:svg="http://www.w3.org/2000/svg">
  <sodipodi:namedview
     id="namedview7"
     pagecolor="#ffffff"
     bordercolor="#666666"
     borderopacity="1.0"
     inkscape:pageshadow="2"
     inkscape:pageopacity="0.0"
     inkscape:pagecheckerboard="0"
     inkscape:document-units="mm"
     showgrid="false"
     inkscape:zoom="0.74029882"
     inkscape:cx="238.41724"
     inkscape:cy="355.26195"
     inkscape:window-width="1920"
     inkscape:window-height="1017"
     inkscape:window-x="-8"
     inkscape:window-y="-8"
     inkscape:window-maximized="1"
     inkscape:current-layer="layer1" />
  <defs
     id="defs2">
    <marker
       style="overflow:visible"
       id="Arrow1Lstart"
       refX="0.0"
       refY="0.0"
       orient="auto"
       inkscape:stockid="Arrow1Lstart"
       inkscape:isstock="true">
      <path
         transform="scale(0.8) translate(12.5,0)"
         style="fill-rule:evenodd;fill:context-stroke;stroke:context-stroke;stroke-width:1.0pt"
         d="M 0.0,0.0 L 5.0,-5.0 L -12.5,0.0 L 5.0,5.0 L 0.0,0.0 z "
         id="path6283" />
    </marker>
    <linearGradient
       id="linearGradient5607"
       inkscape:swatch="solid">
      <stop
         style="stop-color:#490000;stop-opacity:1;"
         offset="0"
         id="stop5605" />
    </linearGradient>
    <inkscape:perspective
       sodipodi:type="inkscape:persp3d"
       inkscape:vp_x="-44.158516 : 154.58806 : 1"
       inkscape:vp_y="0 : 1635.6653 : 0"
       inkscape:vp_z="325.02231 : 154.58806 : 1"
       inkscape:persp3d-origin="140.4319 : 73.622624 : 1"
       id="perspective196" />
  </defs>
  <g
     inkscape:label="圖層 1"
     inkscape:groupmode="layer"
     id="layer1">
    <path
       sodipodi:type="star"
       style="fill:#d38d5f;stroke:none;marker-start:url(#Arrow1Lstart);stroke-opacity:0.52999997"
       id="path1074"
       inkscape:flatsided="false"
       sodipodi:sides="8"
       sodipodi:cx="235.04022"
       sodipodi:cy="522.76184"
       sodipodi:r1="114.40457"
       sodipodi:r2="37.753506"
       sodipodi:arg1="0.40024066"
       sodipodi:arg2="0.79293974"
       inkscape:rounded="2.23"
       inkscape:randomized="0"
       d="M 340.40309,567.33844 C 270.17307,733.33665 389.94274,423.17168 261.5339,549.65817 133.12506,676.14466 445.06119,561.06671 278.0226,628.78505 110.98402,696.50339 414.99372,561.87358 234.7555,560.51427 54.517289,559.15497 356.46184,698.35472 190.46363,628.1247 24.465412,557.89469 334.63038,677.66435 208.1439,549.25552 81.657406,420.84668 196.73536,732.7828 129.01701,565.74422 61.298669,398.70564 195.92848,702.71534 197.28779,522.47712 198.6471,342.23891 59.447345,644.18346 129.67736,478.18524 199.90737,312.18703 80.137709,622.352 208.54655,495.86551 336.95539,369.37902 25.019259,484.45698 192.05784,416.73863 c 167.03858,-67.71834 -136.971115,66.91147 43.2671,68.27078 180.23822,1.35931 -121.70634,-137.84045 44.29188,-67.61043 165.99821,70.23001 -144.16676,-49.53965 -17.68027,78.86919 126.48649,128.40884 11.40854,-183.52729 79.12688,-16.48871 67.71834,167.03858 -66.91147,-136.97112 -68.27078,43.2671 -1.3593,180.23821 137.84045,-121.70634 67.61044,44.29188 z"
       transform="matrix(0.26458333,0,0,0.26458333,32.880867,-58.971119)"
       inkscape:transform-center-y="-1.7425395e-06" />
  </g>
</svg>
