<svg xmlns="http://www.w3.org/2000/svg" class="jf-logo" viewBox="0 0 95.46 32.89"><path fill="#96bd6f" d="M12.83 0a12.83 12.83 0 0 0 0 25.66h1.11a.17.17 0 0 1 0-.07V9.06a3.9 3.9 0 0 1 3.89-3.89 8.16 8.16 0 0 1 1.69.18 1 1 0 0 1 .83 1 .94.94 0 0 1-1 .94c-.5 0-.86-.17-1.54-.17A1.86 1.86 0 0 0 16 9v2.4h3.41a1 1 0 0 1 1 1 1 1 0 0 1-1 .95H16v12A12.83 12.83 0 0 0 12.83 0"/><path fill="#3f5331" d="M8.59 5.17A1.33 1.33 0 0 0 7.25 6.5a1.34 1.34 0 1 0 2.67 0 1.32 1.32 0 0 0-1.33-1.33m0 5.93a1 1 0 0 0-1 1v15.32A3.34 3.34 0 0 1 5 31a.92.92 0 0 0-.77.92 1 1 0 0 0 1.24 1 5.3 5.3 0 0 0 4.13-5.59V12.11a1 1 0 0 0-1-1"/><path fill="#44403f" d="M35 10.86a.57.57 0 0 1 1.13 0v8.49a3 3 0 0 1-2.3 3.08h-.17a.54.54 0 0 1-.53-.55.52.52 0 0 1 .43-.51 1.85 1.85 0 0 0 1.44-2zm-.18-3.13a.75.75 0 1 1 1.49 0 .75.75 0 1 1-1.49 0M45 10.86a.57.57 0 0 1 1.13 0v6.92a.78.78 0 0 1-.52.73 8 8 0 0 1-2.5.41 2.82 2.82 0 0 1-3-3v-5a.57.57 0 0 1 1.13 0V16a1.75 1.75 0 0 0 1.9 1.9 6.6 6.6 0 0 0 1.86-.3zm6.12 3.79a2.13 2.13 0 0 1-1.44-2.1 2.4 2.4 0 0 1 2.68-2.25 4.84 4.84 0 0 1 2 .41.59.59 0 0 1 .35.53.53.53 0 0 1-.57.51.46.46 0 0 1-.14-.05 4.18 4.18 0 0 0-1.73-.36c-.64 0-1.42.31-1.42 1.16a1.22 1.22 0 0 0 .83 1.14l1.56.63a2.39 2.39 0 0 1 1.65 2.2 2.5 2.5 0 0 1-2.65 2.45 4.9 4.9 0 0 1-2.24-.48.54.54 0 0 1 .23-1 .51.51 0 0 1 .23.07 4.39 4.39 0 0 0 1.77.41 1.33 1.33 0 0 0 1.48-1.23c0-.69-.35-1-1-1.35zm7.3-7.1A.56.56 0 0 1 59 7a.56.56 0 0 1 .56.57v2.91h1.91A.54.54 0 0 1 62 11a.53.53 0 0 1-.55.53h-1.91v5.15a1.05 1.05 0 0 0 1.05 1.14c.25 0 .71-.06.87-.06a.54.54 0 0 1 .54.52.56.56 0 0 1-.47.55 6 6 0 0 1-.94.08 2.17 2.17 0 0 1-2.17-2.27zm7.38 1.6A2.18 2.18 0 0 1 68 7a5.11 5.11 0 0 1 1 .1.56.56 0 0 1 .46.55.52.52 0 0 1-.55.53c-.28 0-.48-.1-.86-.1a1 1 0 0 0-1 1v1.36h1.9a.54.54 0 0 1 .55.55.53.53 0 0 1-.55.53h-1.9v6.82a.57.57 0 0 1-1.13 0zm12.5 6.58a3.18 3.18 0 1 1-6.36 0v-2.24a3.18 3.18 0 1 1 6.36 0zm-1.12-2.32a2.06 2.06 0 1 0-4.11 0v2.4a2.06 2.06 0 1 0 4.11 0zm9.69-.17a1.74 1.74 0 0 0-1.87-1.9 6.56 6.56 0 0 0-1.9.28v6.74a.57.57 0 0 1-1.13 0v-6.92a.78.78 0 0 1 .53-.73 7.37 7.37 0 0 1 2.5-.41 2.86 2.86 0 0 1 3 3v5a.56.56 0 0 1-1.12 0zm5.01-5.69a.57.57 0 1 1 1.13 0v2.91h1.9a.54.54 0 0 1 .55.55.53.53 0 0 1-.55.53H93v5.15a1 1 0 0 0 1 1.14c.25 0 .71-.06.88-.06a.54.54 0 0 1 .53.52.55.55 0 0 1-.46.55 6.09 6.09 0 0 1-1 .08 2.17 2.17 0 0 1-2.17-2.27z"/></svg>